<svg width="43" height="53" viewBox="0 0 43 53" fill="none" xmlns="http://www.w3.org/2000/svg">
<path d="M27.112 6C27.112 2.68629 24.4146 0 21.0872 0C17.7597 0 15.0623 2.68629 15.0623 6V47C15.0623 50.3137 17.7597 53 21.0872 53C24.4146 53 27.112 50.3137 27.112 47V6Z" fill="white"/>
<path d="M42.1742 15C42.1742 11.6863 39.4768 9 36.1493 9C32.8219 9 30.1245 11.6863 30.1245 15V37C30.1245 40.3137 32.8219 43 36.1493 43C39.4768 43 42.1742 40.3137 42.1742 37V15Z" fill="white"/>
<path d="M11.0456 14.5C11.0456 11.4624 8.57299 9 5.52282 9C2.47265 9 0 11.4624 0 14.5V37.5C0 40.5376 2.47265 43 5.52282 43C8.57299 43 11.0456 40.5376 11.0456 37.5V14.5Z" fill="white"/>
</svg>
