<svg xmlns="http://www.w3.org/2000/svg" xmlns:xlink="http://www.w3.org/1999/xlink" width="889.636" height="531.879" viewBox="0 0 889.636 531.879">
  <defs>
    <clipPath id="clip-path">
      <rect id="Retângulo_8" data-name="Retângulo 8" width="889.636" height="531.879" fill="#fff"/>
    </clipPath>
  </defs>
  <g id="hero" clip-path="url(#clip-path)">
    <path id="Caminho_2" data-name="Caminho 2" d="M616.781,516.269c-11.389-9.623-18.308-24.827-16.494-39.628s13.052-28.407,27.629-31.55,31.193,5.558,35.619,19.8c2.437-27.453,5.245-56.055,19.84-79.433,13.216-21.168,36.106-36.316,60.914-39.025s50.927,7.525,66.4,27.105,19.259,48.045,8.424,70.526c-7.983,16.561-22.689,28.885-38.1,38.911A245.876,245.876,0,0,1,612.848,519.76Z" transform="translate(13.542 7.809)" fill="#f2f2f2"/>
    <path id="Caminho_3" data-name="Caminho 3" d="M834.363,356.091A405.709,405.709,0,0,0,715.154,517.285c-1.137,2.786,3.387,4,4.512,1.244A401.208,401.208,0,0,1,837.671,359.4C840.008,357.5,836.679,354.2,834.363,356.091Z" transform="translate(16.137 8.024)" fill="#fff"/>
    <path id="Caminho_4" data-name="Caminho 4" d="M286.388,516.861c15.644-13.219,25.146-34.1,22.654-54.429S291.116,423.414,271.1,419.1s-42.844,7.633-48.925,27.19c-3.346-37.706-7.2-76.991-27.249-109.1-18.152-29.075-49.592-49.879-83.665-53.6s-69.948,10.335-91.2,37.229-26.453,65.992-11.57,96.867c10.964,22.745,31.163,39.673,52.327,53.444,67.52,43.936,151.278,62.259,230.976,50.53" transform="translate(0 6.387)" fill="#f2f2f2"/>
    <path id="Caminho_5" data-name="Caminho 5" d="M52.691,294.459a552.484,552.484,0,0,1,77,76.465A560.433,560.433,0,0,1,190.421,460.8a558.259,558.259,0,0,1,26,55.062c1.561,3.826-4.653,5.492-6.2,1.708a548.514,548.514,0,0,0-50.115-94.82A552.012,552.012,0,0,0,92.9,339.717,550.652,550.652,0,0,0,48.147,299c-3.208-2.613,1.362-7.135,4.544-4.544Z" transform="translate(1.062 6.629)" fill="#fff"/>
    <path id="Caminho_6" data-name="Caminho 6" d="M632.738,530.714H259.5V147.761C259.5,66.285,325.785,0,407.261,0h77.715c81.476,0,147.761,66.285,147.761,147.761Z" transform="translate(5.857)" fill="#f2f2f2"/>
    <path id="Caminho_7" data-name="Caminho 7" d="M555.023,530.714H259.5V147.761A146.614,146.614,0,0,1,287.719,60.9c.679-.925,1.356-1.838,2.053-2.742a147.742,147.742,0,0,1,31.449-30.524c.674-.491,1.352-.973,2.039-1.455a147.405,147.405,0,0,1,32.182-16.83c.676-.256,1.364-.513,2.052-.759a147.257,147.257,0,0,1,31.81-7.5c.673-.092,1.363-.164,2.053-.236a149.594,149.594,0,0,1,31.808,0c.688.072,1.378.144,2.059.237a147.231,147.231,0,0,1,31.8,7.5c.688.246,1.376.5,2.054.759A147.035,147.035,0,0,1,490.89,25.93c.687.472,1.374.954,2.052,1.437a149.249,149.249,0,0,1,18.8,15.915,147.628,147.628,0,0,1,13.012,14.879c.7.9,1.372,1.813,2.05,2.737a146.619,146.619,0,0,1,28.22,86.863Z" transform="translate(5.857 0)" fill="#ccc"/>
    <path id="Caminho_8" data-name="Caminho 8" d="M525.361,352.222A16.361,16.361,0,1,0,509,335.861,16.361,16.361,0,0,0,525.361,352.222Z" transform="translate(11.488 7.211)" fill="#6c63ff"/>
    <path id="Caminho_9" data-name="Caminho 9" d="M595.007,508.85H582.471l-5.965-48.355h18.5Z" transform="translate(13.012 10.394)" fill="#ffb8b8"/>
    <path id="Caminho_10" data-name="Caminho 10" d="M573.918,504.28H598.1V519.5h-39.4a15.222,15.222,0,0,1,15.223-15.223Z" transform="translate(12.61 11.382)" fill="#2f2e41"/>
    <path id="Caminho_11" data-name="Caminho 11" d="M656.007,508.85H643.471l-5.965-48.355h18.5Z" transform="translate(14.389 10.394)" fill="#ffb8b8"/>
    <path id="Caminho_12" data-name="Caminho 12" d="M634.918,504.28H659.1V519.5H619.7a15.222,15.222,0,0,1,15.223-15.223Z" transform="translate(13.987 11.382)" fill="#2f2e41"/>
    <path id="Caminho_13" data-name="Caminho 13" d="M533.14,341.62a10.984,10.984,0,0,1,4.612-16.2l42.617-117.46,20.97,11.444L552.679,331.652a11.044,11.044,0,0,1-19.539,9.968Z" transform="translate(11.99 4.694)" fill="#ffb8b8"/>
    <path id="Caminho_14" data-name="Caminho 14" d="M649.693,363.363a10.987,10.987,0,0,1-2.958-16.583l-13.2-124.251,23.864,1.09,5.487,122.218a11.045,11.045,0,0,1-13.191,17.527Z" transform="translate(14.299 5.023)" fill="#ffb8b8"/>
    <path id="Caminho_15" data-name="Caminho 15" d="M612.66,187.793a25.115,25.115,0,1,0-25.115-25.115A25.116,25.116,0,0,0,612.66,187.793Z" transform="translate(13.261 3.105)" fill="#ffb8b8"/>
    <path id="Caminho_16" data-name="Caminho 16" d="M650.851,335.708H575.133l.091-.59c.136-.88,13.495-88.39,3.642-117.019a12.077,12.077,0,0,1,6.206-14.912h0c14.083-6.631,41.115-14.8,63.931,5.02a28.877,28.877,0,0,1,9.674,23.924Z" transform="translate(12.981 4.418)" fill="#6c63ff"/>
    <path id="Caminho_17" data-name="Caminho 17" d="M590.106,259.475l-34.088-6.916L572,214.693a14.313,14.313,0,0,1,27.718,7.156Z" transform="translate(12.55 4.604)" fill="#6c63ff"/>
    <path id="Caminho_18" data-name="Caminho 18" d="M632.1,272.258l-2.049-46.978c-1.554-8.832,3.5-17.18,11.277-18.544S656.7,211.5,658.261,220.4l7.7,43.9Z" transform="translate(14.214 4.662)" fill="#6c63ff"/>
    <path id="Caminho_19" data-name="Caminho 19" d="M648.422,327.119c12.184,46.4,13.512,105.4,10.226,169.747l-16.361-2.045L612.632,372.112,596.271,496.866l-18.406-1.023c-5.5-67.52-10.852-125.486-2.045-163.611Z" transform="translate(12.891 7.383)" fill="#2f2e41"/>
    <path id="Caminho_20" data-name="Caminho 20" d="M629.32,182.342c-4.685,4.991-13.386,2.312-14-4.506a8.191,8.191,0,0,1,.01-1.591c.315-3.02,2.059-5.762,1.642-8.951a4.7,4.7,0,0,0-.859-2.2c-3.734-5-12.5,2.236-16.023-2.291-2.161-2.775.379-7.145-1.278-10.246-2.188-4.094-8.67-2.075-12.735-4.316-4.523-2.5-4.252-9.434-1.275-13.654,3.631-5.148,10-7.894,16.282-8.29s12.53,1.3,18.4,3.591c6.668,2.6,13.28,6.19,17.384,12.053,4.991,7.131,5.471,16.717,2.976,25.055C638.328,172.071,633.146,178.266,629.32,182.342Z" transform="translate(13.15 2.849)" fill="#2f2e41"/>
    <path id="Caminho_21" data-name="Caminho 21" d="M835.049,520.068H102.178a1.067,1.067,0,0,1-.833-.451,1.874,1.874,0,0,1,0-2.166,1.067,1.067,0,0,1,.833-.451H835.049a1.068,1.068,0,0,1,.834.451,1.874,1.874,0,0,1,0,2.166A1.068,1.068,0,0,1,835.049,520.068Z" transform="translate(2.28 11.669)" fill="#3f3d56"/>
    <path id="Caminho_22" data-name="Caminho 22" d="M472.081,417.339H339.147a6.613,6.613,0,0,1-6.647-6.56V114.06a6.613,6.613,0,0,1,6.647-6.56H472.081a6.613,6.613,0,0,1,6.647,6.56V410.779a6.613,6.613,0,0,1-6.647,6.56Z" transform="translate(7.505 2.426)" fill="#fff"/>
    <path id="Caminho_23" data-name="Caminho 23" d="M478.728,201.39H332.5v2.045H478.728Z" transform="translate(7.505 4.545)" fill="#ccc"/>
    <path id="Caminho_24" data-name="Caminho 24" d="M479.228,315.5H333v2.045H479.228Z" transform="translate(7.516 7.121)" fill="#ccc"/>
    <path id="Caminho_25" data-name="Caminho 25" d="M379.545,107.5H377.5V418.361h2.045Z" transform="translate(8.52 2.426)" fill="#ccc"/>
    <path id="Caminho_26" data-name="Caminho 26" d="M429.545,107.5H427.5V418.361h2.045Z" transform="translate(9.649 2.426)" fill="#ccc"/>
    <path id="Caminho_27" data-name="Caminho 27" d="M230.121,190.243A79.121,79.121,0,1,0,151,111.121,79.121,79.121,0,0,0,230.121,190.243Z" transform="translate(3.408 0.722)" fill="#6c63ff"/>
    <path id="Caminho_28" data-name="Caminho 28" d="M261.978,144.162H196.42a4.528,4.528,0,0,1-4.522-4.522v-39.56a4.527,4.527,0,0,1,4.522-4.521h65.558a4.525,4.525,0,0,1,4.521,4.521v39.56a4.526,4.526,0,0,1-4.521,4.522ZM196.42,100.079v39.56h65.561l0-39.56Z" transform="translate(4.331 2.157)" fill="#fff"/>
    <path id="Caminho_29" data-name="Caminho 29" d="M249.17,100.878H208.479V82.793c0-13.1,8.557-22.606,20.345-22.606s20.346,9.507,20.346,22.606ZM213,96.357h31.649V82.793c0-10.648-6.507-18.085-15.824-18.085S213,72.145,213,82.793Z" transform="translate(4.705 1.358)" fill="#fff"/>
    <path id="Caminho_30" data-name="Caminho 30" d="M228.475,122.84a4.521,4.521,0,1,0-4.521-4.522A4.522,4.522,0,0,0,228.475,122.84Z" transform="translate(5.055 2.568)" fill="#fff"/>
  </g>
</svg>
